<svg width="120" height="293" viewBox="0 0 120 293" fill="none" xmlns="http://www.w3.org/2000/svg">
<g clip-path="url(#clip0_309_221)">
<path d="M1.03839 70.7297C0.186425 71.2743 0.325865 72.44 1.26195 72.7951C5.54218 74.4454 8.60826 78.0974 9.30559 82.6947L10.1855 88.4958C11.3514 96.1821 18.5825 101.465 26.3295 100.29C26.8411 100.212 27.322 100.08 27.8113 99.9537C23.7696 95.834 19.9209 89.5857 18.4844 80.1156C18.3876 79.4775 18.8347 78.8756 19.4778 78.778C20.1209 78.6805 20.7263 79.1227 20.8231 79.7608C23.5883 97.9905 36.0231 104.012 40.5142 105.082C41.7781 105.379 43.0517 104.608 43.3621 103.351C43.6787 102.087 42.8967 100.826 41.638 100.512C41.3584 100.443 37.9073 99.5277 34.2257 96.3029C37.0777 93.4668 39.4624 88.5355 37.9441 82.7646C35.3841 71.5064 23.8784 65.0546 11.2787 66.9658C7.60981 67.5223 3.9282 68.8819 1.03839 70.7297V70.7297Z" fill="#568459"/>
<path d="M82.3813 264H41.4268V55.0645H82.3813V264Z" fill="#568459"/>
</g>
<defs>
<clipPath id="clip0_309_221">
<rect width="120" height="293" fill="white"/>
</clipPath>
</defs>
</svg>
