<svg width="160" height="293" viewBox="0 0 160 293" fill="none" xmlns="http://www.w3.org/2000/svg">
<g clip-path="url(#clip0_309_206)">
<path d="M114.016 1.31024C113.267 -0.374107 111.128 -0.44148 110.232 1.14854C106.088 8.41143 98.668 12.939 90.1918 12.939H79.4963C65.3249 12.939 53.8272 24.5272 53.8272 38.8105C53.8272 39.7537 53.9342 40.6565 54.0278 41.5728C62.5574 35.4148 74.8706 30.1866 92.3309 30.1866C93.5074 30.1866 94.47 31.1568 94.47 32.3426C94.47 33.5284 93.5074 34.4986 92.3309 34.4986C58.7204 34.4986 44.4687 55.2632 41.3135 63.065C40.4312 65.2614 41.474 67.7677 43.6532 68.6705C45.8457 69.5868 48.3324 68.5223 49.2416 66.3394C49.4421 65.8543 52.0357 59.885 58.8541 54.1313C63.1858 60.0467 71.4213 65.6926 82.2371 64.5338C103.227 62.9977 118 44.0252 118 20.7947C118 14.0304 116.556 7.02353 114.016 1.31024Z" fill="#568459"/>
<path d="M81.7584 292.137C82.5459 291.667 82.4523 290.607 81.6139 290.259C77.7814 288.643 75.1055 285.247 74.6028 281.061L73.9686 275.779C73.1283 268.78 66.7236 263.789 59.6698 264.636C59.2039 264.692 58.7644 264.798 58.3175 264.899C61.8644 268.746 65.1765 274.517 66.2119 283.14C66.2816 283.721 65.8596 284.254 65.274 284.324C64.6884 284.394 64.1522 283.977 64.0824 283.396C62.0894 266.797 50.9896 260.99 46.9495 259.894C45.8125 259.589 44.6366 260.253 44.32 261.382C43.9975 262.519 44.6706 263.684 45.8026 264.004C46.054 264.074 49.1558 265.001 52.4016 268.027C49.7371 270.517 47.4372 274.919 48.6509 280.192C50.6541 290.467 60.8998 296.637 72.3722 295.26C75.7128 294.859 79.0875 293.73 81.7584 292.137Z" fill="#568459"/>
<path d="M50.439 55.0645V97.6304C50.439 105.06 50.1704 112.132 49.6333 118.846C49.1857 125.56 48.8276 130.305 48.5591 133.08H50.7075C53.9302 127.888 57.7347 123.68 62.1211 120.458C66.597 117.235 71.5205 114.863 76.8916 113.341C82.2627 111.819 88.0366 111.058 94.2134 111.058C105.045 111.058 114.489 112.983 122.546 116.832C130.603 120.592 136.869 126.545 141.345 134.691C145.821 142.748 148.059 153.221 148.059 166.112V264H107.104V176.317C107.104 165.575 105.135 157.473 101.196 152.013C97.257 146.552 91.1698 143.822 82.9341 143.822C74.6984 143.822 68.2083 145.746 63.4639 149.596C58.7194 153.355 55.3625 158.95 53.3931 166.38C51.4237 173.721 50.439 182.717 50.439 193.37V264H9.48438V55.0645H50.439Z" fill="#568459"/>
</g>
<defs>
<clipPath id="clip0_309_206">
<rect width="160" height="293" fill="white"/>
</clipPath>
</defs>
</svg>
