<svg width="187" height="293" viewBox="0 0 187 293" fill="none" xmlns="http://www.w3.org/2000/svg">
<g clip-path="url(#clip0_309_198)">
<path d="M180.524 97.8543C180.191 96.9695 179.098 96.8711 178.592 97.6583C176.252 101.253 172.318 103.349 167.978 103.096L162.503 102.776C155.247 102.352 149.014 107.941 148.587 115.254C148.558 115.737 148.586 116.202 148.607 116.674C153.158 113.776 159.618 111.468 168.558 111.99C169.16 112.025 169.624 112.551 169.589 113.158C169.553 113.765 169.031 114.233 168.429 114.198C151.221 113.193 143.303 123.398 141.455 127.298C140.937 128.396 141.396 129.71 142.485 130.238C143.58 130.772 144.885 130.302 145.416 129.211C145.533 128.969 147.039 125.99 150.702 123.248C152.743 126.406 156.791 129.543 162.363 129.273C173.155 129.115 181.286 119.843 181.981 107.949C182.183 104.486 181.653 100.855 180.524 97.8543Z" fill="#568459"/>
<path d="M95.3862 108.058C109.262 108.058 121.212 110.744 131.238 116.115C141.264 121.396 149.008 129.095 154.468 139.21C159.929 149.326 162.659 161.68 162.659 176.271V196.144H65.8452C66.2928 207.692 69.7393 216.778 76.1846 223.402C82.7194 229.937 91.7607 233.205 103.309 233.205C112.887 233.205 121.66 232.22 129.627 230.25C137.594 228.281 145.785 225.327 154.2 221.388V253.078C146.77 256.748 138.982 259.433 130.835 261.134C122.779 262.835 112.977 263.686 101.429 263.686C86.3896 263.686 73.0514 260.91 61.4141 255.36C49.8662 249.81 40.7801 241.351 34.1558 229.982C27.6209 218.613 24.3535 204.29 24.3535 187.013C24.3535 169.468 27.3076 154.876 33.2158 143.239C39.2135 131.512 47.5387 122.739 58.1914 116.92C68.8441 111.012 81.2424 108.058 95.3862 108.058ZM95.6548 137.196C87.6877 137.196 81.0633 139.748 75.7817 144.85C70.5897 149.953 67.5908 157.965 66.7852 168.886H124.256C124.166 162.799 123.047 157.383 120.899 152.638C118.84 147.894 115.707 144.134 111.5 141.359C107.382 138.584 102.1 137.196 95.6548 137.196Z" fill="#568459"/>
</g>
<defs>
<clipPath id="clip0_309_198">
<rect width="187" height="293" fill="white"/>
</clipPath>
</defs>
</svg>
