<svg width="206" height="293" viewBox="0 0 206 293" fill="none" xmlns="http://www.w3.org/2000/svg">
<g clip-path="url(#clip0_309_214)">
<path d="M19.0163 288.727C19.3392 289.585 20.3994 289.681 20.8903 288.917C23.1589 285.431 26.9746 283.398 31.1835 283.644L36.4944 283.954C43.5313 284.365 49.5766 278.944 49.9908 271.852C50.0182 271.383 49.9912 270.932 49.9713 270.474C45.5573 273.285 39.2915 275.524 30.6215 275.017C30.0374 274.983 29.5875 274.474 29.6219 273.885C29.6563 273.296 30.1624 272.842 30.7466 272.876C47.436 273.851 55.115 263.954 56.908 260.171C57.4098 259.106 56.9647 257.831 55.9088 257.32C54.8466 256.801 53.581 257.258 53.0662 258.315C52.9526 258.55 51.4916 261.439 47.939 264.098C45.9597 261.035 42.0341 257.993 36.6298 258.255C26.1627 258.409 18.2768 267.401 17.6031 278.936C17.4069 282.295 17.9206 285.816 19.0163 288.727Z" fill="#568459"/>
<path d="M105.983 109.79C126.125 109.79 141.567 114.176 152.309 122.949C163.051 131.722 168.422 145.06 168.422 162.963V263H139.821L131.899 242.59H130.825C126.528 247.961 122.141 252.347 117.666 255.749C113.19 259.151 108.042 261.657 102.224 263.269C96.4049 264.88 89.333 265.686 81.0078 265.686C72.1455 265.686 64.1784 263.985 57.1064 260.583C50.124 257.181 44.6187 251.989 40.5903 245.007C36.562 237.935 34.5479 228.983 34.5479 218.151C34.5479 202.217 40.1427 190.49 51.3325 182.971C62.5223 175.362 79.307 171.154 101.687 170.349L127.736 169.543V162.963C127.736 155.086 125.677 149.312 121.56 145.642C117.442 141.971 111.713 140.136 104.372 140.136C97.1211 140.136 90.0044 141.166 83.022 143.225C76.0396 145.284 69.0571 147.88 62.0747 151.013L48.5127 123.352C56.4798 119.144 65.3869 115.832 75.2339 113.415C85.1704 110.998 95.4202 109.79 105.983 109.79ZM127.736 193.444L111.892 193.981C98.6429 194.34 89.4225 196.712 84.2305 201.098C79.1279 205.485 76.5767 211.258 76.5767 218.42C76.5767 224.686 78.4118 229.162 82.082 231.848C85.7523 234.444 90.5415 235.742 96.4497 235.742C105.222 235.742 112.608 233.146 118.605 227.954C124.693 222.762 127.736 215.376 127.736 205.798V193.444Z" fill="#568459"/>
</g>
<defs>
<clipPath id="clip0_309_214">
<rect width="206" height="293" fill="white"/>
</clipPath>
</defs>
</svg>
